<?xml version="1.0" encoding="utf-8"?>
<!-- Generator: Adobe Illustrator 16.0.0, SVG Export Plug-In . SVG Version: 6.00 Build 0)  -->
<!DOCTYPE svg PUBLIC "-//W3C//DTD SVG 1.1//EN" "http://www.w3.org/Graphics/SVG/1.1/DTD/svg11.dtd">
<svg version="1.1" id="Layer_1" xmlns="http://www.w3.org/2000/svg" xmlns:xlink="http://www.w3.org/1999/xlink" x="0px" y="0px"
	 width="1536px" height="2048px" viewBox="0 0 1536 2048" enable-background="new 0 0 1536 2048" xml:space="preserve">
<path d="M1221.552,505.388c39.418-69.322,78.085-141.218,115.798-215.45l67.123-86.269l-86.286,67.105
	c-74.233,37.73-146.112,76.363-215.451,115.798C1149.654,418.13,1189.977,458.451,1221.552,505.388z"/>
<path d="M621.641,986.482c0.24,0.238,22.147,26.035-117.093,224.401c-56.791,80.882-118.219,158.678-143.469,190.168
	L207.074,1247.01c31.456-25.215,109.148-86.575,190.03-143.349C595.573,964.301,621.403,986.243,621.641,986.482"/>
<path d="M780.812,1176.922c-39.076,61.599-166.912,213.046-292.375,351.469l-59.11-59.109
	C567.767,1343.816,719.214,1215.98,780.812,1176.922"/>
<path d="M431.219,827.294c-39.077,61.598-166.911,213.063-292.376,351.485L79.75,1119.67
	C218.155,994.205,369.604,866.371,431.219,827.294"/>
<path d="M778.408,1158.9c146.556-182.188,294.509-394.348,433.664-636.941c-32.529-50.482-75.426-93.377-125.908-125.891
	C843.571,535.207,631.411,683.16,449.224,829.714c-30.723,52.188-120.998,159.631-196.338,246.105l64.514,64.498
	c120.708-89.68,283.051-199.169,316.313-165.889c33.263,33.263-76.21,195.606-165.905,316.313l64.514,64.498
	C618.777,1279.881,726.222,1189.605,778.408,1158.9z M754.267,853.856c-33.297-33.28-33.297-87.258,0-120.539
	c33.281-33.297,87.259-33.297,120.538,0c33.298,33.281,33.298,87.259,0,120.539C841.525,887.153,787.548,887.153,754.267,853.856z"
	/>
</svg>
